<svg viewBox="0 0 44 44" xmlns="http://www.w3.org/2000/svg">
	<g transform="translate(0 -46.5)">
		<path class="monthPaths" fill="#6c6184" d="M 0.5 66.5 l 0 5 l 1 0 l 0 -2 l 1 0 l 0 -3 z m 4 0 v 5 h 1 v -5 z m 3 1 v 1 h 1 v -1 z m 0 2 v 2 h 1 v -2 z m 5 -3 l 1 2 v -2 z m 0 3 v 2 h 1 z m -10 4 v 1 h 1 v 1 h -1 v 2 h 3 v -4 z m 5 0 v 1 h 1 v 1 h -1 v 1 h 3 v -3 z m 5 0 v 1 h 1 v -1 z m 0 2 v 1 h 1 v -1 z m 2 -0.5 l 1 1.5 v -3 z m -12.5 3.5 l 1 1 l 1 -1 z m 0 2 v 3 h 2 v -3 l -1 1 z m 5.5 -1 v 1 h 1 v -1 z m 0 2 v 2 h 1 v -2 z m 5 -2 v 1 h 1 v -1 z m 0 2 v 2 h 1 z m 2 0 l 1 2 v -2 z m -12 4 v 1 h 1 v -1 z m 0 2 v 2 h 1 v -2 z m 5 -2 v 1 h 1 v -1 z m 0 2 v 2 h 3 v -2 z m 0 0 v 2 h 3 v -2 z m 5 -2 v 1 h 1 v -1 z m 0 2 v 2 h 1 z m 2 0 l 1 2 v -2 z m -12.5 3 l 1 1 l 1 -1 z m 0 2 v 3 h 2 v -3 l -1 1 z m 5.5 -1 v 1 h 1 v -1 z m 0 0 v 1 h 1 v -1 z m 0 2 v 2 h 1 v -2 z m 3 -2 v 4 h 1.75 v -2 z m 2 -1 v 1 l 0.5 0.5 l 0.5 -0.5 v -1 z m 1.25 3 v 2 h 1.75 v -4 z m -13.25 3 v 5 h 1 v -2 h 1 v -3 z m 4 0 v 5 h 1 v -5 z m 3 0 v 3 h 1 v -3 z m 0 0 v 3 h 1 v -3 z m 5 0 l 1 2 v -2 z m 0 3 v 2 h 1 z m -12 3 v 5 h 1 v -2 h 1 v -3 z m 4 0 v 5 h 1 v -5 z m 3 0 v 3 h 1 v -3 z m 5 0 v 3 h 3 v -3 z m -10 7 v 1 h 1 v -1 z m 0 2 v 2 h 1 v -2 z m 5 -3 v 3 h 1 v -3 z m 4.5 1 v 3 h 2 v -1 h -1 v -1 h 2 v -1 z m -9.5 6 v 1 h 3 v -1 z m -2 2 v 1 h 3 v -1 z m 7 -2 v 1 h 1 v 1 h -1 v 1 h 3 v -3 z m 5 0 v 1 h 1 v -1 z m 0 2 v 2 h 3 v -2 z m -10 4.5 v 2 h 1 v -2 z m 5 0 v 2 h 3 v -2 z m 3 0 v 4 h 1.5 v -4 z m 3.5 0 v 4 h 1.5 v -4 z m -11.5 4.5 l 1 2 v -2 z m 0 3 v 2 h 1 z m 5 -2 v 3 h 1 v -3 z m 3 2 v 2 h 2 z m 2 -3 v 2.5 l 0.5 0.5 l 0.5 -0.5 v -2.5 z m 1 5 h 2 v -2 z m -11 3 v 1 h 1 v -1 z m 1 -2 l 2 2 v -2 z m 0 5 h 2 v -2 z m 4 -4 v 1 h 1 v 1 h -1 v 1 h 3 v -3 z m 5 0.5 v 2 h 3 v -2 z" transform="translate(0 -6)"></path>
		<g class="dayPaths" transform="translate(0 -42)">
			<path fill="#BABE86" d="M 23 67.5 v 3 h 1 v -3 z m -1.5 4.5 v 6 h 2.5 v -6 z m 0 7.5 v 0.8 h 2.5 v -0.8 z m 1.5 2.2 v 0.8 h 2.5 v -0.8 z m -1.5 3.8 v 0.8 h 2.5 v -0.8 z m 0 2.2 v 0.8 h 2.5 v -0.8 z m 1.5 2.3 v 2.3 h 1 v -2.3 z m -1.5 3.7 v 2.3 h 2.5 v -2.3 z m 1.5 3.8 v 0.8 h 2.5 v -0.8 z m -1.5 2.2 v 0.8 h 2.5 v -0.8 z m 1.5 3.8 v 0.8 h 2.5 v -0.8 z m 0 2.2 v 0.8 h 1 v -0.8 z m -1.5 3.8 v 4.5 h 2.5 v -4.5 z m 1.5 6 v 0.8 h 1 v -0.8 z m 0 2.2 v 0.8 h 1 v -0.8 z m 0 3.8 v 0.8 h 1 v -0.8 z m -1.5 2.2 v 2.3 h 2.5 v -2.3 z"></path>
		</g>
		<g class="dayPaths10" transform="translate(0 -6)">
			<path fill="#BABE86" d="M 19 67.5 v 3 h 1 v -3 z m -1.5 4.5 v 6 h 2.5 v -6 z m 0 7.5 v 0.8 h 2.5 v -0.8 z m 1.5 2.2 v 0.8 h 2.5 v -0.8 z m -1.5 3.8 v 0.8 h 2.5 v -0.8 z"></path>
		</g>
		<g class="yearPaths1000" transform="translate(0 -12)">
			<path fill="#11BE86" d="M 28.75 67.5 v 3 h 1 v -3 z m -1.5 4.5 v 6 h 2.5 v -6 z m 0 7.5 v 0.8 h 2.5 v -0.8 z m 1.5 2.2 v 0.8 h 2.5 v -0.8 z m -1.5 3.8 v 0.8 h 2.5 v -0.8 z m 0 2.2 v 0.8 h 2.5 v -0.8 z m 1.5 2.3 v 2.3 h 1 v -2.3 z m -1.5 3.7 v 2.3 h 2.5 v -2.3 z m 1.5 3.8 v 0.8 h 2.5 v -0.8 z m -1.5 2.2 v 0.8 h 2.5 v -0.8 z m 1.5 3.8 v 0.8 h 2.5 v -0.8 z m 0 2.2 v 0.8 h 1 v -0.8 z m -1.5 3.8 v 4.5 h 2.5 v -4.5 z m 1.5 6 v 0.8 h 1 v -0.8 z m 0 2.2 v 0.8 h 1 v -0.8 z m 0 3.8 v 0.8 h 1 v -0.8 z m -1.5 2.2 v 2.3 h 2.5 v -2.3 z"></path>
		</g>
		<g class="yearPaths100" transform="translate(0 0)">
			<path fill="#11BE86" d="M 32.75 67.5 v 3 h 1 v -3 z m -1.5 4.5 v 6 h 2.5 v -6 z m 0 7.5 v 0.8 h 2.5 v -0.8 z m 1.5 2.2 v 0.8 h 2.5 v -0.8 z m -1.5 3.8 v 0.8 h 2.5 v -0.8 z m 0 2.2 v 0.8 h 2.5 v -0.8 z m 1.5 2.3 v 2.3 h 1 v -2.3 z m -1.5 3.7 v 2.3 h 2.5 v -2.3 z m 1.5 3.8 v 0.8 h 2.5 v -0.8 z m -1.5 2.2 v 0.8 h 2.5 v -0.8 z m 1.5 3.8 v 0.8 h 2.5 v -0.8 z m 0 2.2 v 0.8 h 1 v -0.8 z m -1.5 3.8 v 4.5 h 2.5 v -4.5 z m 1.5 6 v 0.8 h 1 v -0.8 z m 0 2.2 v 0.8 h 1 v -0.8 z m 0 3.8 v 0.8 h 1 v -0.8 z m -1.5 2.2 v 2.3 h 2.5 v -2.3 z"></path>
		</g>
		<g class="yearPaths10" transform="translate(0 -12)">
			<path fill="#11BE86" d="M 36.75 67.5 v 3 h 1 v -3 z m -1.5 4.5 v 6 h 2.5 v -6 z m 0 7.5 v 0.8 h 2.5 v -0.8 z m 1.5 2.2 v 0.8 h 2.5 v -0.8 z m -1.5 3.8 v 0.8 h 2.5 v -0.8 z m 0 2.2 v 0.8 h 2.5 v -0.8 z m 1.5 2.3 v 2.3 h 1 v -2.3 z m -1.5 3.7 v 2.3 h 2.5 v -2.3 z m 1.5 3.8 v 0.8 h 2.5 v -0.8 z m -1.5 2.2 v 0.8 h 2.5 v -0.8 z m 1.5 3.8 v 0.8 h 2.5 v -0.8 z m 0 2.2 v 0.8 h 1 v -0.8 z m -1.5 3.8 v 4.5 h 2.5 v -4.5 z m 1.5 6 v 0.8 h 1 v -0.8 z m 0 2.2 v 0.8 h 1 v -0.8 z m 0 3.8 v 0.8 h 1 v -0.8 z m -1.5 2.2 v 2.3 h 2.5 v -2.3 z"></path>
		</g>
		<g class="yearPaths1" transform="translate(0 -30)">
			<path fill="#11BE86" d="M 40.75 67.5 v 3 h 1 v -3 z m -1.5 4.5 v 6 h 2.5 v -6 z m 0 7.5 v 0.8 h 2.5 v -0.8 z m 1.5 2.2 v 0.8 h 2.5 v -0.8 z m -1.5 3.8 v 0.8 h 2.5 v -0.8 z m 0 2.2 v 0.8 h 2.5 v -0.8 z m 1.5 2.3 v 2.3 h 1 v -2.3 z m -1.5 3.7 v 2.3 h 2.5 v -2.3 z m 1.5 3.8 v 0.8 h 2.5 v -0.8 z m -1.5 2.2 v 0.8 h 2.5 v -0.8 z m 1.5 3.8 v 0.8 h 2.5 v -0.8 z m 0 2.2 v 0.8 h 1 v -0.8 z m -1.5 3.8 v 4.5 h 2.5 v -4.5 z m 1.5 6 v 0.8 h 1 v -0.8 z m 0 2.2 v 0.8 h 1 v -0.8 z m 0 3.8 v 0.8 h 1 v -0.8 z m -1.5 2.2 v 2.3 h 2.5 v -2.3 z"></path>
		</g>
		<g class="month">
			<path d="M 0.5 66 v 6 h 5 v -6 z m 5 0 v 6 h 5 v -6 z m 5 0 v 6 h 5 v -6 z" fill="none" stroke="#6c6184" stroke-width="1.15"></path>
		</g>
		<g class="day" transform="translate(0 0)">
			<path d="M 21.5 66 v 6 h 4 v -6 z" fill="none" stroke="#BABE86" stroke-width="1"></path>
		</g>
		<g class="day10" transform="translate(0 0)">
			<path d="M 17.5 66 v 6 h 4 v -6 z" fill="none" stroke="#BABE86" stroke-width="1"></path>
		</g>
		<g class="year1000" transform="translate(0 0)">
			<path d="M 27.25 66 v 6 h 4 v -6 z m4 0 v 6 h 4 v -6 z m4 0 v 6 h 4 v -6 z m4 0 v 6 h 4 v -6 z" fill="none" stroke="#11BE86" stroke-width="1"></path>
		</g>
	</g>
</svg>
